# xmcd
#
# Track frame offsets: 
#        150
#        35109
#        65015
#        82068
#        105172
#        128623
#        167626
#        194307
#        226792
#        254175
#        282281
#
# Disc length: 4206 seconds
#
# Revision: 0
# Processed by: cddbd v1.5.2PL0 Copyright (c) Steve Scherf et al.
# Submitted via: ExactAudioCopy v0.99pb3
#
DISCID=98106c0b
DTITLE=Brian Lillos - Rezidential school blues
DYEAR=2001
DGENRE=Blues
TTITLE0=Trane whistle
TTITLE1=People will say we're in love
TTITLE2=This is always
TTITLE3=Red top
TTITLE4=Wait till you see her
TTITLE5=Old folks
TTITLE6=Rezidential school blues
TTITLE7=Mean to me
TTITLE8=I'll never stop loving you
TTITLE9=High fly
TTITLE10=When I gow too old to dream
EXTD=
EXTT0=
EXTT1=
EXTT2=
EXTT3=
EXTT4=
EXTT5=
EXTT6=
EXTT7=
EXTT8=
EXTT9=
EXTT10=
PLAYORDER=
